<svg xmlns="http://www.w3.org/2000/svg" viewBox="0 0 352.77 238.57">
    <defs>
        <style>.b{fill:#6ab3de;}.c{fill:#0a6eb4;}</style>
    </defs>
    <path class="b" d="M71.53,238.57h-.66C31.73,238.57,0,206.84,0,167.7c0-34.74,25-63.64,57.98-69.69,2.14,25.2,9.78,48.83,21.71,69.69,10.83,18.97,25.22,35.64,42.25,49.12,10.91,8.64,22.9,15.97,35.74,21.75H71.53Z"/>
    <path class="c" d="M135.23,157.1c0,6.47,.75,12.77,2.18,18.81,1.76,7.45,4.54,14.49,8.2,20.99,13.94,24.86,40.55,41.67,71.09,41.67-48.39,0-90.97-24.93-115.56-62.66-10.05-15.41-17.1-32.95-20.32-51.8-1.3-7.6-1.98-15.42-1.98-23.4,0-6.26,.42-12.41,1.22-18.45C89,35.4,130.19,0,179.64,0c8.15,0,16.08,.96,23.67,2.79,.35,.08,.7,.17,1.05,.26,16.3,4.24,28.33,19.05,28.33,36.69s-12.93,33.53-30.13,37.12c-.54,.09-1.07,.19-1.6,.29-37.46,7.33-65.73,40.35-65.73,79.96Z"/>
    <path class="b" d="M285.62,157.04c0,7.13-1.17,14.01-3.33,20.5-7.06,21.26-24.85,38.37-47.72,46.28,11.45-16.23,18.76-34.72,21.24-54.03,2.34-17.98,.47-36.66-6.13-54.9-.77-2.11-1.6-4.22-2.5-6.32-1.51-3.56-3.19-7.02-5.01-10.39-.55-1.03-1.11-2.04-1.7-3.04-.67-1.17-1.36-2.31-2.06-3.45,6.44,2.58,12.44,5.91,17.84,9.87,4.42,3.23,8.43,6.87,11.99,10.88h.01c3.32,3.73,6.22,7.76,8.67,12.03h0c1.31,2.29,2.47,4.65,3.51,7.08,1.48,3.49,2.67,7.09,3.54,10.82,1.01,4.36,1.58,8.88,1.66,13.49,.02,.39,.02,.79,.02,1.19Z"/>
    <path class="c" d="M240.24,110.42c-3,.19-5.96,.55-8.87,1.06-.54,.09-1.07,.19-1.61,.29-1.88,.37-3.74,.8-5.57,1.3-29.74,8.02-52.8,32.36-58.95,62.83-1.07,5.28-1.63,10.73-1.63,16.33,0,3.17,.19,6.28,.53,9.35-.03,0-.06,0-.09,0-6.25-7.38-10.97-16.1-13.68-25.67-1.7-5.98-2.6-12.28-2.6-18.81,0-32.97,23.14-60.52,54.06-67.32,4.78-1.05,9.76-1.61,14.86-1.61,2.41,0,4.79,.12,7.14,.36,2.73,2.74,5.31,5.65,7.7,8.71,1.95,2.49,3.78,5.08,5.48,7.75,1.13,1.77,2.2,3.58,3.21,5.43Z"/>
    <path class="c" d="M236.68,149.67h0c-5.8,2.71-11.23,6.09-16.19,10.04-5.88,4.66-11.1,10.12-15.51,16.2-5.62,7.77-9.93,16.57-12.56,26.06-1.65,5.92-2.64,12.11-2.92,18.49-3.26-1.4-6.39-3.04-9.36-4.92-.84-2.36-1.56-4.78-2.14-7.26-.43-1.82-.8-3.68-1.07-5.55-.53-3.42-.8-6.92-.8-10.49,0-5.62,.67-11.1,1.94-16.33,6.16-25.57,26.47-45.63,52.18-51.43,1.42,3.28,2.64,6.67,3.63,10.15,1.38,4.85,2.33,9.87,2.79,15.04Z"/>
    <path class="c" d="M224.58,225.57c-.24,.04-.49,.06-.73,.09-2.35,.24-4.73,.36-7.14,.36-5.05,0-9.98-.54-14.72-1.58,0-.04,0-.08,0-.12,0-.11,0-.24,0-.35,0-8.74,1.62-17.11,4.56-24.81,.54-1.41,1.12-2.8,1.76-4.17,.23,.88,.48,1.73,.73,2.59,.08,.27,.16,.53,.25,.79,.88,2.88,1.95,5.69,3.17,8.39,.89,1.99,1.87,3.93,2.94,5.83,2.18,3.89,4.7,7.57,7.5,10.99,.46,.57,.93,1.11,1.41,1.66,.1,.11,.19,.23,.3,.34Z"/>
    <path class="b" d="M352.77,167.7c0,3.18-.21,6.3-.62,9.37-.98,7.46-3.12,14.56-6.25,21.1-4.41,9.25-10.77,17.41-18.56,23.91h0c-5.49,4.6-11.68,8.38-18.4,11.14-1.91,.79-3.86,1.5-5.85,2.12-6.1,1.92-12.56,3.02-19.25,3.21-.64,.01-1.29,.02-1.94,.02h-60.87c3.77-.42,7.47-1.07,11.09-1.93,6-1.43,11.78-3.43,17.27-5.96,18.75-8.6,34.15-23.23,43.73-41.41,6.16-11.65,9.91-24.75,10.63-38.66,.08-1.61,.12-3.24,.12-4.87,0-2.77-.12-5.51-.36-8.22-.07-.82-.15-1.64-.25-2.45-1.55-13.7-6.07-26.5-12.9-37.74,35.15,4.18,62.41,34.09,62.41,70.37Z"/>
</svg>
