<!-- TODO: deprecate! -->
<svg xmlns="http://www.w3.org/2000/svg" viewBox="0 0 352.77 238.57">
  <defs>
    <style>.cls-1{fill:#6ab3de;}.cls-2{fill:#0a6eb4;}
    </style>
  </defs>

  <g id="Layer_2" data-name="Layer 2">
    <g id="draft-6">
      <path
        class="cls-1" d="M71.53,238.57h-.66A70.87,70.87,0,0,1,58,98a170.37,170.37,0,0,0,99.7,140.56Z"/>
      <path
        class="cls-2" d="M135.23,157.1a81.58,81.58,0,0,0,2.18,18.81,80.55,80.55,0,0,0,8.2,21,81.41,81.41,0,0,0,71.09,41.67A137.73,137.73,0,0,1,78.84,100.71a140.36,140.36,0,0,1,1.22-18.45A101.45,101.45,0,0,1,203.31,2.79c.35.07.7.16,1.05.25a37.93,37.93,0,0,1-1.8,73.81c-.54.09-1.07.18-1.6.29A81.5,81.5,0,0,0,135.23,157.1Z"/>
      <path
        class="cls-1" d="M286.9,146.43A77.91,77.91,0,0,1,237,219.19,140.61,140.61,0,0,0,251.73,100.5q-1.12-3.45-2.45-6.89-2.22-5.82-4.9-11.32c-.54-1.12-1.09-2.22-1.66-3.31-.66-1.27-1.33-2.52-2-3.76a78.16,78.16,0,0,1,29.18,22.6h0a77.74,77.74,0,0,1,8.48,13.11h0a77.26,77.26,0,0,1,8.51,34.19C286.9,145.56,286.9,146,286.9,146.43Z"/>
      <path class="cls-2" d="M240.24,110.42a81.05,81.05,0,0,0-8.87,1.06l-1.61.29c-1.89.37-3.74.81-5.57,1.3a81.93,81.93,0,0,0-60.58,79.17,84.73,84.73,0,0,0,.53,9.34h-.09a68.93,68.93,0,0,1,37.78-111.8,69.42,69.42,0,0,1,14.87-1.61,70.22,70.22,0,0,1,7.14.37,96.62,96.62,0,0,1,7.7,8.71A93.44,93.44,0,0,1,237,105Q238.73,107.65,240.24,110.42Z"/>
      <path class="cls-2" d="M236.68,149.67h0a81.07,81.07,0,0,0-16.19,10A81.93,81.93,0,0,0,192.43,202a81.29,81.29,0,0,0-2.92,18.49,67.3,67.3,0,0,1-9.37-4.91,70.54,70.54,0,0,1-2.14-7.26c-.43-1.82-.79-3.68-1.07-5.56a68.4,68.4,0,0,1-.79-10.48,69.44,69.44,0,0,1,54.11-67.76,80.55,80.55,0,0,1,3.64,10.15A82,82,0,0,1,236.68,149.67Z"/>
      <path class="cls-2" d="M224.58,225.57c-.24,0-.49.06-.74.09a70.23,70.23,0,0,1-7.14.36A68.59,68.59,0,0,1,202,224.44a.24.24,0,0,1,0-.12c0-.12,0-.24,0-.36a69.22,69.22,0,0,1,4.56-24.81c.54-1.41,1.12-2.8,1.76-4.17.23.87.48,1.73.73,2.59.08.26.16.53.25.79a71,71,0,0,0,3.17,8.39q1.34,3,2.93,5.82a76.9,76.9,0,0,0,7.5,11c.46.57.93,1.12,1.41,1.67C224.37,225.34,224.47,225.46,224.58,225.57Z"/>
      <path class="cls-1" d="M352.77,167.7a70.67,70.67,0,0,1-.62,9.37,69.93,69.93,0,0,1-6.25,21.1,70.92,70.92,0,0,1-18.56,23.91h0a70.4,70.4,0,0,1-18.4,11.13q-2.87,1.18-5.85,2.12a70.72,70.72,0,0,1-19.25,3.21l-1.94,0H221a92.38,92.38,0,0,0,28.36-7.89,93.45,93.45,0,0,0,54.36-80.07c.08-1.61.12-3.24.12-4.87q0-4.16-.36-8.22c-.07-.82-.15-1.64-.25-2.45a92.62,92.62,0,0,0-12.9-37.74A70.88,70.88,0,0,1,352.77,167.7Z"/>
    </g>
  </g>
</svg>
